<svg xmlns="http://www.w3.org/2000/svg" viewBox="0 0 800 1000" preserveAspectRatio="xMidYMid slice" class="" aria-hidden="true" focusable="false" data-plate="facade"><defs><linearGradient id="_R_0_-sky" x1="0" y1="0" x2="0" y2="1"><stop offset="0" stop-color="#f8f4ec"></stop><stop offset="1" stop-color="#e7dfcd"></stop></linearGradient><linearGradient id="_R_0_-floor" x1="0" y1="0" x2="0" y2="1"><stop offset="0" stop-color="#dad3c7"></stop><stop offset="1" stop-color="#c9bfad"></stop></linearGradient><linearGradient id="_R_0_-reveal" x1="0" y1="0" x2="1" y2="0"><stop offset="0" stop-color="#142a25" stop-opacity="0.42"></stop><stop offset="1" stop-color="#142a25" stop-opacity="0"></stop></linearGradient><linearGradient id="_R_0_-revealV" x1="0" y1="0" x2="0" y2="1"><stop offset="0" stop-color="#142a25" stop-opacity="0.35"></stop><stop offset="1" stop-color="#142a25" stop-opacity="0"></stop></linearGradient><linearGradient id="_R_0_-light" x1="0" y1="0" x2="1" y2="1"><stop offset="0" stop-color="#ffffff" stop-opacity="0.32"></stop><stop offset="0.5" stop-color="#ffffff" stop-opacity="0"></stop></linearGradient><linearGradient id="_R_0_-shade" x1="0" y1="0" x2="1" y2="0"><stop offset="0" stop-color="#142a25" stop-opacity="0"></stop><stop offset="1" stop-color="#142a25" stop-opacity="0.28"></stop></linearGradient><linearGradient id="_R_0_-interior" x1="0" y1="0" x2="0" y2="1"><stop offset="0" stop-color="#142a25"></stop><stop offset="1" stop-color="#1f3b34"></stop></linearGradient><linearGradient id="_R_0_-glow" x1="0" y1="0" x2="0" y2="1"><stop offset="0" stop-color="#fbf8f1"></stop><stop offset="1" stop-color="#e7dfcd" stop-opacity="0"></stop></linearGradient><radialGradient id="_R_0_-sun" cx="0.5" cy="0.5" r="0.5"><stop offset="0" stop-color="#fffdf7" stop-opacity="0.9"></stop><stop offset="1" stop-color="#fffdf7" stop-opacity="0"></stop></radialGradient></defs><g><rect width="800" height="1000" fill="#ede6d8"></rect><rect width="800" height="1000" fill="url(#_R_0_-shade)" opacity="0.25"></rect><g><rect x="0" y="110" width="800" height="20" fill="#dad3c7"></rect><rect x="0" y="130" width="800" height="3" fill="#b3a894" opacity="0.6"></rect></g><g><rect x="0" y="410" width="800" height="20" fill="#dad3c7"></rect><rect x="0" y="430" width="800" height="3" fill="#b3a894" opacity="0.6"></rect></g><g><rect x="0" y="710" width="800" height="20" fill="#dad3c7"></rect><rect x="0" y="730" width="800" height="3" fill="#b3a894" opacity="0.6"></rect></g><rect x="0" y="60" width="800" height="1.5" fill="#aa9167" opacity="0.55"></rect><g><rect x="70" y="150" width="200" height="230" fill="#dad3c7"></rect><rect x="82" y="162" width="176" height="206" fill="url(#_R_0_-interior)"></rect><rect x="82" y="162" width="176" height="60" fill="#ffffff" opacity="0.08"></rect><rect x="168" y="162" width="4" height="206" fill="#ede6d8" opacity="0.7"></rect><rect x="82" y="258" width="176" height="4" fill="#ede6d8" opacity="0.7"></rect><rect x="60" y="380" width="220" height="14" fill="#c9bfad"></rect><path d="M60 394 H280 L286 412 H66 Z" fill="#142a25" opacity="0.15"></path><rect x="82" y="162" width="24" height="206" fill="url(#_R_0_-reveal)"></rect></g><g><rect x="300" y="150" width="200" height="230" fill="#dad3c7"></rect><rect x="312" y="162" width="176" height="206" fill="url(#_R_0_-interior)"></rect><rect x="312" y="162" width="176" height="60" fill="#ffffff" opacity="0.08"></rect><rect x="398" y="162" width="4" height="206" fill="#ede6d8" opacity="0.7"></rect><rect x="312" y="258" width="176" height="4" fill="#ede6d8" opacity="0.7"></rect><rect x="290" y="380" width="220" height="14" fill="#c9bfad"></rect><path d="M290 394 H510 L516 412 H296 Z" fill="#142a25" opacity="0.15"></path><rect x="312" y="162" width="24" height="206" fill="url(#_R_0_-reveal)"></rect></g><g><rect x="530" y="150" width="200" height="230" fill="#dad3c7"></rect><rect x="542" y="162" width="176" height="206" fill="url(#_R_0_-interior)"></rect><rect x="542" y="162" width="176" height="60" fill="#ffffff" opacity="0.08"></rect><rect x="628" y="162" width="4" height="206" fill="#ede6d8" opacity="0.7"></rect><rect x="542" y="258" width="176" height="4" fill="#ede6d8" opacity="0.7"></rect><rect x="520" y="380" width="220" height="14" fill="#c9bfad"></rect><path d="M520 394 H740 L746 412 H526 Z" fill="#142a25" opacity="0.15"></path><rect x="542" y="162" width="24" height="206" fill="url(#_R_0_-reveal)"></rect></g><g><rect x="70" y="450" width="200" height="230" fill="#dad3c7"></rect><rect x="82" y="462" width="176" height="206" fill="url(#_R_0_-interior)"></rect><rect x="82" y="462" width="176" height="60" fill="#ffffff" opacity="0.08"></rect><rect x="168" y="462" width="4" height="206" fill="#ede6d8" opacity="0.7"></rect><rect x="82" y="558" width="176" height="4" fill="#ede6d8" opacity="0.7"></rect><rect x="60" y="680" width="220" height="14" fill="#c9bfad"></rect><path d="M60 694 H280 L286 712 H66 Z" fill="#142a25" opacity="0.15"></path><rect x="82" y="462" width="24" height="206" fill="url(#_R_0_-reveal)"></rect></g><g><rect x="300" y="450" width="200" height="230" fill="#dad3c7"></rect><rect x="312" y="462" width="176" height="206" fill="url(#_R_0_-interior)"></rect><rect x="312" y="462" width="176" height="60" fill="#ffffff" opacity="0.08"></rect><rect x="398" y="462" width="4" height="206" fill="#ede6d8" opacity="0.7"></rect><rect x="312" y="558" width="176" height="4" fill="#ede6d8" opacity="0.7"></rect><rect x="290" y="680" width="220" height="14" fill="#c9bfad"></rect><path d="M290 694 H510 L516 712 H296 Z" fill="#142a25" opacity="0.15"></path><rect x="312" y="462" width="24" height="206" fill="url(#_R_0_-reveal)"></rect></g><g><rect x="530" y="450" width="200" height="230" fill="#dad3c7"></rect><rect x="542" y="462" width="176" height="206" fill="url(#_R_0_-interior)"></rect><rect x="542" y="462" width="176" height="60" fill="#ffffff" opacity="0.08"></rect><rect x="628" y="462" width="4" height="206" fill="#ede6d8" opacity="0.7"></rect><rect x="542" y="558" width="176" height="4" fill="#ede6d8" opacity="0.7"></rect><rect x="520" y="680" width="220" height="14" fill="#c9bfad"></rect><path d="M520 694 H740 L746 712 H526 Z" fill="#142a25" opacity="0.15"></path><rect x="542" y="462" width="24" height="206" fill="url(#_R_0_-reveal)"></rect></g><g><rect x="70" y="750" width="200" height="230" fill="#dad3c7"></rect><rect x="82" y="762" width="176" height="206" fill="url(#_R_0_-interior)"></rect><rect x="82" y="762" width="176" height="60" fill="#ffffff" opacity="0.08"></rect><rect x="168" y="762" width="4" height="206" fill="#ede6d8" opacity="0.7"></rect><rect x="82" y="858" width="176" height="4" fill="#ede6d8" opacity="0.7"></rect><rect x="60" y="980" width="220" height="14" fill="#c9bfad"></rect><path d="M60 994 H280 L286 1012 H66 Z" fill="#142a25" opacity="0.15"></path><rect x="82" y="762" width="24" height="206" fill="url(#_R_0_-reveal)"></rect></g><g><rect x="300" y="750" width="200" height="230" fill="#dad3c7"></rect><rect x="312" y="762" width="176" height="206" fill="url(#_R_0_-interior)"></rect><rect x="312" y="762" width="176" height="60" fill="#ffffff" opacity="0.08"></rect><rect x="398" y="762" width="4" height="206" fill="#ede6d8" opacity="0.7"></rect><rect x="312" y="858" width="176" height="4" fill="#ede6d8" opacity="0.7"></rect><rect x="290" y="980" width="220" height="14" fill="#c9bfad"></rect><path d="M290 994 H510 L516 1012 H296 Z" fill="#142a25" opacity="0.15"></path><rect x="312" y="762" width="24" height="206" fill="url(#_R_0_-reveal)"></rect></g><g><rect x="530" y="750" width="200" height="230" fill="#dad3c7"></rect><rect x="542" y="762" width="176" height="206" fill="url(#_R_0_-interior)"></rect><rect x="542" y="762" width="176" height="60" fill="#ffffff" opacity="0.08"></rect><rect x="628" y="762" width="4" height="206" fill="#ede6d8" opacity="0.7"></rect><rect x="542" y="858" width="176" height="4" fill="#ede6d8" opacity="0.7"></rect><rect x="520" y="980" width="220" height="14" fill="#c9bfad"></rect><path d="M520 994 H740 L746 1012 H526 Z" fill="#142a25" opacity="0.15"></path><rect x="542" y="762" width="24" height="206" fill="url(#_R_0_-reveal)"></rect></g><path d="M0 0 H480 L0 620 Z" fill="url(#_R_0_-light)" opacity="0.55"></path></g></svg>
