<svg xmlns="http://www.w3.org/2000/svg" viewBox="0 0 800 1000" preserveAspectRatio="xMidYMid slice" class="" aria-hidden="true" focusable="false" data-plate="horizon"><defs><linearGradient id="_R_0_-sky" x1="0" y1="0" x2="0" y2="1"><stop offset="0" stop-color="#f8f4ec"></stop><stop offset="1" stop-color="#e7dfcd"></stop></linearGradient><linearGradient id="_R_0_-floor" x1="0" y1="0" x2="0" y2="1"><stop offset="0" stop-color="#dad3c7"></stop><stop offset="1" stop-color="#c9bfad"></stop></linearGradient><linearGradient id="_R_0_-reveal" x1="0" y1="0" x2="1" y2="0"><stop offset="0" stop-color="#142a25" stop-opacity="0.42"></stop><stop offset="1" stop-color="#142a25" stop-opacity="0"></stop></linearGradient><linearGradient id="_R_0_-revealV" x1="0" y1="0" x2="0" y2="1"><stop offset="0" stop-color="#142a25" stop-opacity="0.35"></stop><stop offset="1" stop-color="#142a25" stop-opacity="0"></stop></linearGradient><linearGradient id="_R_0_-light" x1="0" y1="0" x2="1" y2="1"><stop offset="0" stop-color="#ffffff" stop-opacity="0.32"></stop><stop offset="0.5" stop-color="#ffffff" stop-opacity="0"></stop></linearGradient><linearGradient id="_R_0_-shade" x1="0" y1="0" x2="1" y2="0"><stop offset="0" stop-color="#142a25" stop-opacity="0"></stop><stop offset="1" stop-color="#142a25" stop-opacity="0.28"></stop></linearGradient><linearGradient id="_R_0_-interior" x1="0" y1="0" x2="0" y2="1"><stop offset="0" stop-color="#142a25"></stop><stop offset="1" stop-color="#1f3b34"></stop></linearGradient><linearGradient id="_R_0_-glow" x1="0" y1="0" x2="0" y2="1"><stop offset="0" stop-color="#fbf8f1"></stop><stop offset="1" stop-color="#e7dfcd" stop-opacity="0"></stop></linearGradient><radialGradient id="_R_0_-sun" cx="0.5" cy="0.5" r="0.5"><stop offset="0" stop-color="#fffdf7" stop-opacity="0.9"></stop><stop offset="1" stop-color="#fffdf7" stop-opacity="0"></stop></radialGradient></defs><g><rect width="800" height="1000" fill="url(#_R_0_-sky)"></rect><ellipse cx="540" cy="360" rx="460" ry="260" fill="url(#_R_0_-sun)" opacity="0.85"></ellipse><rect x="0" y="540" width="800" height="180" fill="#bfcac4"></rect><rect x="0" y="540" width="800" height="2" fill="#a6b5ae"></rect><rect x="0" y="575" width="800" height="1" fill="#a6b5ae" opacity="0.5"></rect><rect x="0" y="605" width="800" height="1" fill="#a6b5ae" opacity="0.42"></rect><rect x="0" y="640" width="800" height="1" fill="#a6b5ae" opacity="0.33999999999999997"></rect><rect x="0" y="680" width="800" height="1" fill="#a6b5ae" opacity="0.26"></rect><rect x="0" y="540" width="800" height="180" fill="#ffffff" opacity="0.08"></rect><rect x="0" y="720" width="800" height="280" fill="url(#_R_0_-floor)"></rect><rect x="0" y="790" width="800" height="1" fill="#b3a894" opacity="0.35"></rect><rect x="0" y="860" width="800" height="1" fill="#b3a894" opacity="0.35"></rect><rect x="0" y="940" width="800" height="1" fill="#b3a894" opacity="0.35"></rect><rect x="0" y="612" width="800" height="22" fill="#ede6d8"></rect><rect x="0" y="634" width="800" height="10" fill="#dad3c7"></rect><rect x="0" y="644" width="800" height="3" fill="#b3a894" opacity="0.5"></rect><g><rect x="64" y="647" width="44" height="9" fill="#dad3c7"></rect><rect x="79" y="656" width="14" height="22" fill="#dad3c7"></rect><ellipse cx="86" cy="704" rx="21" ry="30" fill="#dad3c7"></ellipse><ellipse cx="79" cy="700" rx="7" ry="22" fill="#ffffff" opacity="0.3"></ellipse><ellipse cx="95" cy="706" rx="8" ry="26" fill="#142a25" opacity="0.14"></ellipse><rect x="78" y="732" width="16" height="48" fill="#dad3c7"></rect><rect x="89" y="732" width="5" height="48" fill="#142a25" opacity="0.12"></rect><rect x="66" y="780" width="40" height="21" fill="#c9bfad"></rect></g><g><rect x="176" y="647" width="44" height="9" fill="#dad3c7"></rect><rect x="191" y="656" width="14" height="22" fill="#dad3c7"></rect><ellipse cx="198" cy="704" rx="21" ry="30" fill="#dad3c7"></ellipse><ellipse cx="191" cy="700" rx="7" ry="22" fill="#ffffff" opacity="0.3"></ellipse><ellipse cx="207" cy="706" rx="8" ry="26" fill="#142a25" opacity="0.14"></ellipse><rect x="190" y="732" width="16" height="48" fill="#dad3c7"></rect><rect x="201" y="732" width="5" height="48" fill="#142a25" opacity="0.12"></rect><rect x="178" y="780" width="40" height="21" fill="#c9bfad"></rect></g><g><rect x="288" y="647" width="44" height="9" fill="#dad3c7"></rect><rect x="303" y="656" width="14" height="22" fill="#dad3c7"></rect><ellipse cx="310" cy="704" rx="21" ry="30" fill="#dad3c7"></ellipse><ellipse cx="303" cy="700" rx="7" ry="22" fill="#ffffff" opacity="0.3"></ellipse><ellipse cx="319" cy="706" rx="8" ry="26" fill="#142a25" opacity="0.14"></ellipse><rect x="302" y="732" width="16" height="48" fill="#dad3c7"></rect><rect x="313" y="732" width="5" height="48" fill="#142a25" opacity="0.12"></rect><rect x="290" y="780" width="40" height="21" fill="#c9bfad"></rect></g><g><rect x="400" y="647" width="44" height="9" fill="#dad3c7"></rect><rect x="415" y="656" width="14" height="22" fill="#dad3c7"></rect><ellipse cx="422" cy="704" rx="21" ry="30" fill="#dad3c7"></ellipse><ellipse cx="415" cy="700" rx="7" ry="22" fill="#ffffff" opacity="0.3"></ellipse><ellipse cx="431" cy="706" rx="8" ry="26" fill="#142a25" opacity="0.14"></ellipse><rect x="414" y="732" width="16" height="48" fill="#dad3c7"></rect><rect x="425" y="732" width="5" height="48" fill="#142a25" opacity="0.12"></rect><rect x="402" y="780" width="40" height="21" fill="#c9bfad"></rect></g><g><rect x="512" y="647" width="44" height="9" fill="#dad3c7"></rect><rect x="527" y="656" width="14" height="22" fill="#dad3c7"></rect><ellipse cx="534" cy="704" rx="21" ry="30" fill="#dad3c7"></ellipse><ellipse cx="527" cy="700" rx="7" ry="22" fill="#ffffff" opacity="0.3"></ellipse><ellipse cx="543" cy="706" rx="8" ry="26" fill="#142a25" opacity="0.14"></ellipse><rect x="526" y="732" width="16" height="48" fill="#dad3c7"></rect><rect x="537" y="732" width="5" height="48" fill="#142a25" opacity="0.12"></rect><rect x="514" y="780" width="40" height="21" fill="#c9bfad"></rect></g><g><rect x="624" y="647" width="44" height="9" fill="#dad3c7"></rect><rect x="639" y="656" width="14" height="22" fill="#dad3c7"></rect><ellipse cx="646" cy="704" rx="21" ry="30" fill="#dad3c7"></ellipse><ellipse cx="639" cy="700" rx="7" ry="22" fill="#ffffff" opacity="0.3"></ellipse><ellipse cx="655" cy="706" rx="8" ry="26" fill="#142a25" opacity="0.14"></ellipse><rect x="638" y="732" width="16" height="48" fill="#dad3c7"></rect><rect x="649" y="732" width="5" height="48" fill="#142a25" opacity="0.12"></rect><rect x="626" y="780" width="40" height="21" fill="#c9bfad"></rect></g><g><rect x="736" y="647" width="44" height="9" fill="#dad3c7"></rect><rect x="751" y="656" width="14" height="22" fill="#dad3c7"></rect><ellipse cx="758" cy="704" rx="21" ry="30" fill="#dad3c7"></ellipse><ellipse cx="751" cy="700" rx="7" ry="22" fill="#ffffff" opacity="0.3"></ellipse><ellipse cx="767" cy="706" rx="8" ry="26" fill="#142a25" opacity="0.14"></ellipse><rect x="750" y="732" width="16" height="48" fill="#dad3c7"></rect><rect x="761" y="732" width="5" height="48" fill="#142a25" opacity="0.12"></rect><rect x="738" y="780" width="40" height="21" fill="#c9bfad"></rect></g><rect x="0" y="801" width="800" height="26" fill="#dad3c7"></rect><rect x="0" y="827" width="800" height="5" fill="#b3a894" opacity="0.55"></rect><path d="M0 832 H800 V1000 H0 Z" fill="#142a25" opacity="0.08"></path><path d="M0 0 H520 L0 520 Z" fill="url(#_R_0_-light)" opacity="0.5"></path></g></svg>
