<svg xmlns="http://www.w3.org/2000/svg" viewBox="0 0 800 1000" preserveAspectRatio="xMidYMid slice" class="" aria-hidden="true" focusable="false" data-plate="stair"><defs><linearGradient id="_R_0_-sky" x1="0" y1="0" x2="0" y2="1"><stop offset="0" stop-color="#f8f4ec"></stop><stop offset="1" stop-color="#e7dfcd"></stop></linearGradient><linearGradient id="_R_0_-floor" x1="0" y1="0" x2="0" y2="1"><stop offset="0" stop-color="#dad3c7"></stop><stop offset="1" stop-color="#c9bfad"></stop></linearGradient><linearGradient id="_R_0_-reveal" x1="0" y1="0" x2="1" y2="0"><stop offset="0" stop-color="#142a25" stop-opacity="0.42"></stop><stop offset="1" stop-color="#142a25" stop-opacity="0"></stop></linearGradient><linearGradient id="_R_0_-revealV" x1="0" y1="0" x2="0" y2="1"><stop offset="0" stop-color="#142a25" stop-opacity="0.35"></stop><stop offset="1" stop-color="#142a25" stop-opacity="0"></stop></linearGradient><linearGradient id="_R_0_-light" x1="0" y1="0" x2="1" y2="1"><stop offset="0" stop-color="#ffffff" stop-opacity="0.32"></stop><stop offset="0.5" stop-color="#ffffff" stop-opacity="0"></stop></linearGradient><linearGradient id="_R_0_-shade" x1="0" y1="0" x2="1" y2="0"><stop offset="0" stop-color="#142a25" stop-opacity="0"></stop><stop offset="1" stop-color="#142a25" stop-opacity="0.28"></stop></linearGradient><linearGradient id="_R_0_-interior" x1="0" y1="0" x2="0" y2="1"><stop offset="0" stop-color="#142a25"></stop><stop offset="1" stop-color="#1f3b34"></stop></linearGradient><linearGradient id="_R_0_-glow" x1="0" y1="0" x2="0" y2="1"><stop offset="0" stop-color="#fbf8f1"></stop><stop offset="1" stop-color="#e7dfcd" stop-opacity="0"></stop></linearGradient><radialGradient id="_R_0_-sun" cx="0.5" cy="0.5" r="0.5"><stop offset="0" stop-color="#fffdf7" stop-opacity="0.9"></stop><stop offset="1" stop-color="#fffdf7" stop-opacity="0"></stop></radialGradient></defs><g><rect width="800" height="1000" fill="url(#_R_0_-sky)"></rect><ellipse cx="620" cy="140" rx="360" ry="260" fill="url(#_R_0_-sun)"></ellipse><path d="M0 0 H300 V1000 H0 Z" fill="#ede6d8"></path><path d="M300 0 H330 V1000 H300 Z" fill="url(#_R_0_-reveal)"></path><rect x="0" y="0" width="300" height="1000" fill="url(#_R_0_-shade)" opacity="0.35"></rect><rect x="0" y="330" width="300" height="2" fill="#aa9167" opacity="0.5"></rect><g><rect x="300" y="938" width="500" height="24" fill="#dad3c7"></rect><rect x="300" y="962" width="500" height="38" fill="#c9bfad"></rect><rect x="300" y="938" width="500" height="2" fill="#ede6d8"></rect><rect x="300" y="962" width="500" height="2" fill="#b3a894" opacity="0.6"></rect></g><g><rect x="332" y="876" width="468" height="24" fill="#dad3c7"></rect><rect x="332" y="900" width="468" height="38" fill="#c9bfad"></rect><rect x="332" y="876" width="468" height="2" fill="#ede6d8"></rect><rect x="332" y="900" width="468" height="2" fill="#b3a894" opacity="0.6"></rect></g><g><rect x="364" y="814" width="436" height="24" fill="#dad3c7"></rect><rect x="364" y="838" width="436" height="38" fill="#c9bfad"></rect><rect x="364" y="814" width="436" height="2" fill="#ede6d8"></rect><rect x="364" y="838" width="436" height="2" fill="#b3a894" opacity="0.6"></rect></g><g><rect x="396" y="752" width="404" height="24" fill="#dad3c7"></rect><rect x="396" y="776" width="404" height="38" fill="#c9bfad"></rect><rect x="396" y="752" width="404" height="2" fill="#ede6d8"></rect><rect x="396" y="776" width="404" height="2" fill="#b3a894" opacity="0.6"></rect></g><g><rect x="428" y="690" width="372" height="24" fill="#dad3c7"></rect><rect x="428" y="714" width="372" height="38" fill="#c9bfad"></rect><rect x="428" y="690" width="372" height="2" fill="#ede6d8"></rect><rect x="428" y="714" width="372" height="2" fill="#b3a894" opacity="0.6"></rect></g><g><rect x="460" y="628" width="340" height="24" fill="#dad3c7"></rect><rect x="460" y="652" width="340" height="38" fill="#c9bfad"></rect><rect x="460" y="628" width="340" height="2" fill="#ede6d8"></rect><rect x="460" y="652" width="340" height="2" fill="#b3a894" opacity="0.6"></rect></g><g><rect x="492" y="566" width="308" height="24" fill="#dad3c7"></rect><rect x="492" y="590" width="308" height="38" fill="#c9bfad"></rect><rect x="492" y="566" width="308" height="2" fill="#ede6d8"></rect><rect x="492" y="590" width="308" height="2" fill="#b3a894" opacity="0.6"></rect></g><g><rect x="524" y="504" width="276" height="24" fill="#dad3c7"></rect><rect x="524" y="528" width="276" height="38" fill="#c9bfad"></rect><rect x="524" y="504" width="276" height="2" fill="#ede6d8"></rect><rect x="524" y="528" width="276" height="2" fill="#b3a894" opacity="0.6"></rect></g><g><rect x="556" y="442" width="244" height="24" fill="#dad3c7"></rect><rect x="556" y="466" width="244" height="38" fill="#c9bfad"></rect><rect x="556" y="442" width="244" height="2" fill="#ede6d8"></rect><rect x="556" y="466" width="244" height="2" fill="#b3a894" opacity="0.6"></rect></g><g><rect x="588" y="380" width="212" height="24" fill="#dad3c7"></rect><rect x="588" y="404" width="212" height="38" fill="#c9bfad"></rect><rect x="588" y="380" width="212" height="2" fill="#ede6d8"></rect><rect x="588" y="404" width="212" height="2" fill="#b3a894" opacity="0.6"></rect></g><g><rect x="620" y="318" width="180" height="24" fill="#dad3c7"></rect><rect x="620" y="342" width="180" height="38" fill="#c9bfad"></rect><rect x="620" y="318" width="180" height="2" fill="#ede6d8"></rect><rect x="620" y="342" width="180" height="2" fill="#b3a894" opacity="0.6"></rect></g><path d="M330 1000 L330 380 L800 200 L800 380 L420 1000 Z" fill="#142a25" opacity="0.12"></path><path d="M330 330 L800 130 L800 150 L330 350 Z" fill="#c9bfad"></path><rect x="360" y="337.235" width="10" height="112" fill="#c9bfad" opacity="0.9"></rect><rect x="412" y="315.109" width="10" height="112" fill="#c9bfad" opacity="0.9"></rect><rect x="464" y="292.983" width="10" height="112" fill="#c9bfad" opacity="0.9"></rect><rect x="516" y="270.85699999999997" width="10" height="112" fill="#c9bfad" opacity="0.9"></rect><rect x="568" y="248.731" width="10" height="112" fill="#c9bfad" opacity="0.9"></rect><rect x="620" y="226.60500000000002" width="10" height="112" fill="#c9bfad" opacity="0.9"></rect><rect x="672" y="204.479" width="10" height="112" fill="#c9bfad" opacity="0.9"></rect><rect x="724" y="182.353" width="10" height="112" fill="#c9bfad" opacity="0.9"></rect><rect x="776" y="160.227" width="10" height="112" fill="#c9bfad" opacity="0.9"></rect><path d="M330 462 L800 262 L800 280 L330 480 Z" fill="#b3a894" opacity="0.7"></path><path d="M0 0 H560 L0 700 Z" fill="url(#_R_0_-light)" opacity="0.6"></path></g></svg>
